<svg width="40" height="40" viewBox="0 0 40 40" fill="none" xmlns="http://www.w3.org/2000/svg">
<path d="M32.5005 22.5C32.5037 23.0097 32.3488 23.5078 32.0572 23.9258C31.7657 24.3439 31.3517 24.6613 30.8724 24.8344L22.813 27.8125L19.8442 35.8781C19.6684 36.3557 19.3504 36.7679 18.9329 37.0591C18.5155 37.3502 18.0188 37.5064 17.5099 37.5064C17.0009 37.5064 16.5042 37.3502 16.0868 37.0591C15.6694 36.7679 15.3513 36.3557 15.1755 35.8781L12.188 27.8125L4.12237 24.8438C3.64476 24.6679 3.23257 24.3499 2.94141 23.9324C2.65025 23.515 2.49414 23.0183 2.49414 22.5094C2.49414 22.0004 2.65025 21.5037 2.94141 21.0863C3.23257 20.6689 3.64476 20.3508 4.12237 20.175L12.188 17.1875L15.1567 9.12188C15.3326 8.64426 15.6506 8.23207 16.0681 7.94092C16.4855 7.64976 16.9822 7.49365 17.4911 7.49365C18.0001 7.49365 18.4968 7.64976 18.9142 7.94092C19.3316 8.23207 19.6497 8.64426 19.8255 9.12188L22.813 17.1875L30.8786 20.1562C31.3583 20.3309 31.772 20.6502 32.0625 21.07C32.353 21.4898 32.5061 21.9895 32.5005 22.5ZM23.7505 7.5H26.2505V10C26.2505 10.3315 26.3822 10.6495 26.6166 10.8839C26.851 11.1183 27.169 11.25 27.5005 11.25C27.832 11.25 28.15 11.1183 28.3844 10.8839C28.6188 10.6495 28.7505 10.3315 28.7505 10V7.5H31.2505C31.582 7.5 31.9 7.3683 32.1344 7.13388C32.3688 6.89946 32.5005 6.58152 32.5005 6.25C32.5005 5.91848 32.3688 5.60054 32.1344 5.36612C31.9 5.1317 31.582 5 31.2505 5H28.7505V2.5C28.7505 2.16848 28.6188 1.85054 28.3844 1.61612C28.15 1.3817 27.832 1.25 27.5005 1.25C27.169 1.25 26.851 1.3817 26.6166 1.61612C26.3822 1.85054 26.2505 2.16848 26.2505 2.5V5H23.7505C23.419 5 23.101 5.1317 22.8666 5.36612C22.6322 5.60054 22.5005 5.91848 22.5005 6.25C22.5005 6.58152 22.6322 6.89946 22.8666 7.13388C23.101 7.3683 23.419 7.5 23.7505 7.5ZM37.5005 12.5H36.2505V11.25C36.2505 10.9185 36.1188 10.6005 35.8844 10.3661C35.65 10.1317 35.332 10 35.0005 10C34.669 10 34.351 10.1317 34.1166 10.3661C33.8822 10.6005 33.7505 10.9185 33.7505 11.25V12.5H32.5005C32.169 12.5 31.851 12.6317 31.6166 12.8661C31.3822 13.1005 31.2505 13.4185 31.2505 13.75C31.2505 14.0815 31.3822 14.3995 31.6166 14.6339C31.851 14.8683 32.169 15 32.5005 15H33.7505V16.25C33.7505 16.5815 33.8822 16.8995 34.1166 17.1339C34.351 17.3683 34.669 17.5 35.0005 17.5C35.332 17.5 35.65 17.3683 35.8844 17.1339C36.1188 16.8995 36.2505 16.5815 36.2505 16.25V15H37.5005C37.832 15 38.15 14.8683 38.3844 14.6339C38.6188 14.3995 38.7505 14.0815 38.7505 13.75C38.7505 13.4185 38.6188 13.1005 38.3844 12.8661C38.15 12.6317 37.832 12.5 37.5005 12.5Z" fill="#9A9A9A"/>
</svg>
