<svg width="40" height="40" viewBox="0 0 40 40" fill="none" xmlns="http://www.w3.org/2000/svg">
<path d="M33.75 5H13.75C13.4185 5 13.1005 5.1317 12.8661 5.36612C12.6317 5.60054 12.5 5.91848 12.5 6.25V12.5H6.25C5.91848 12.5 5.60054 12.6317 5.36612 12.8661C5.1317 13.1005 5 13.4185 5 13.75V33.75C5 34.0815 5.1317 34.3995 5.36612 34.6339C5.60054 34.8683 5.91848 35 6.25 35H26.25C26.5815 35 26.8995 34.8683 27.1339 34.6339C27.3683 34.3995 27.5 34.0815 27.5 33.75V27.5H33.75C34.0815 27.5 34.3995 27.3683 34.6339 27.1339C34.8683 26.8995 35 26.5815 35 26.25V6.25C35 5.91848 34.8683 5.60054 34.6339 5.36612C34.3995 5.1317 34.0815 5 33.75 5ZM32.5 25H27.5V13.75C27.5 13.4185 27.3683 13.1005 27.1339 12.8661C26.8995 12.6317 26.5815 12.5 26.25 12.5H15V7.5H32.5V25Z" fill="#9A9A9A"/>
</svg>
