<svg width="41" height="40" viewBox="0 0 41 40" fill="none" xmlns="http://www.w3.org/2000/svg">
<path d="M34.25 6.25H6.75C6.08696 6.25 5.45107 6.51339 4.98223 6.98223C4.51339 7.45107 4.25 8.08696 4.25 8.75V31.25C4.25 31.913 4.51339 32.5489 4.98223 33.0178C5.45107 33.4866 6.08696 33.75 6.75 33.75H34.25C34.913 33.75 35.5489 33.4866 36.0178 33.0178C36.4866 32.5489 36.75 31.913 36.75 31.25V8.75C36.75 8.08696 36.4866 7.45107 36.0178 6.98223C35.5489 6.51339 34.913 6.25 34.25 6.25ZM32.6344 13.3844L17.6344 28.3844C17.5183 28.5006 17.3804 28.5928 17.2287 28.6557C17.0769 28.7186 16.9143 28.751 16.75 28.751C16.5857 28.751 16.4231 28.7186 16.2713 28.6557C16.1196 28.5928 15.9817 28.5006 15.8656 28.3844L9.61562 22.1344C9.38107 21.8998 9.2493 21.5817 9.2493 21.25C9.2493 20.9183 9.38107 20.6002 9.61562 20.3656C9.85018 20.1311 10.1683 19.9993 10.5 19.9993C10.8317 19.9993 11.1498 20.1311 11.3844 20.3656L16.75 25.7328L30.8656 11.6156C31.1002 11.3811 31.4183 11.2493 31.75 11.2493C32.0817 11.2493 32.3998 11.3811 32.6344 11.6156C32.8689 11.8502 33.0007 12.1683 33.0007 12.5C33.0007 12.8317 32.8689 13.1498 32.6344 13.3844Z" fill="#9A9A9A"/>
</svg>
