<svg
    xmlns="http://www.w3.org/2000/svg"
    width="24"
    height="24"
    fill="none"
    viewBox="0 0 24 24"
  >
    <path
      style="fill: rgb(0 136 71);"
      d="M10.95 1.43c2.98-1.897 7.064-1.098 9.272 1.755l.208.278a6.598 6.598 0 0 1 1.128 4.993 6.194 6.194 0 0 1-.926 2.318 6.528 6.528 0 0 1 .643 4.194 6.187 6.187 0 0 1-2.798 4.148l-5.4 3.443c-3.076 1.959-7.32 1.046-9.482-2.036A6.605 6.605 0 0 1 2.47 15.53a6.198 6.198 0 0 1 .926-2.32 6.529 6.529 0 0 1-.643-4.189A6.182 6.182 0 0 1 5.55 4.874l5.4-3.443Zm7.254 3.454A4.287 4.287 0 0 0 13.6 3.178a3.909 3.909 0 0 0-1.097.481L7.113 7.1A3.734 3.734 0 0 0 5.43 9.597a3.97 3.97 0 0 0 .672 3.003 4.288 4.288 0 0 0 4.604 1.705 3.91 3.91 0 0 0 1.096-.482l2.068-1.312c.102-.065.214-.114.332-.146a1.294 1.294 0 0 1 1.387.515c.184.263.255.589.197.904-.058.311-.242.584-.51.753l-5.39 3.44a1.184 1.184 0 0 1-.33.146 1.292 1.292 0 0 1-1.401-.526 1.22 1.22 0 0 1-.218-.802l.02-.197-.197-.06A6.941 6.941 0 0 1 5.65 15.48l-.277-.197-.102.31a3.738 3.738 0 0 0-.128.506 3.97 3.97 0 0 0 .682 3.002 4.286 4.286 0 0 0 4.273 1.778l.33-.072a3.909 3.909 0 0 0 1.095-.482l5.393-3.44a3.733 3.733 0 0 0 1.681-2.495 3.97 3.97 0 0 0-.677-3.003 4.289 4.289 0 0 0-4.605-1.706 3.906 3.906 0 0 0-1.096.481l-2.06 1.314a1.223 1.223 0 0 1-.331.144 1.293 1.293 0 0 1-1.388-.515 1.179 1.179 0 0 1-.196-.903c.055-.31.24-.585.507-.753l5.404-3.429a1.18 1.18 0 0 1 .33-.145 1.29 1.29 0 0 1 1.387.515c.164.233.242.517.218.801l-.02.197.197.061a6.94 6.94 0 0 1 2.112 1.055l.278.196.101-.31c.055-.165.098-.334.128-.505a3.97 3.97 0 0 0-.681-3.002Z"
    />
  </svg>