<svg width="41" height="40" viewBox="0 0 41 40" fill="none" xmlns="http://www.w3.org/2000/svg">
<path d="M19.25 12.5C19.25 13.7361 18.8834 14.9445 18.1967 15.9723C17.5099 17.0001 16.5338 17.8012 15.3918 18.2743C14.2497 18.7473 12.9931 18.8711 11.7807 18.6299C10.5683 18.3888 9.45466 17.7935 8.58059 16.9194C7.70651 16.0453 7.11125 14.9317 6.87009 13.7193C6.62894 12.5069 6.75271 11.2503 7.22576 10.1082C7.6988 8.96619 8.49988 7.99008 9.52769 7.30332C10.5555 6.61656 11.7639 6.25 13 6.25C14.6576 6.25 16.2473 6.90848 17.4194 8.08059C18.5915 9.25269 19.25 10.8424 19.25 12.5ZM28 18.75C29.2361 18.75 30.4445 18.3834 31.4723 17.6967C32.5001 17.0099 33.3012 16.0338 33.7743 14.8918C34.2473 13.7497 34.3711 12.4931 34.1299 11.2807C33.8888 10.0683 33.2935 8.95466 32.4194 8.08059C31.5453 7.20651 30.4317 6.61125 29.2193 6.37009C28.0069 6.12894 26.7503 6.25271 25.6082 6.72576C24.4662 7.1988 23.4901 7.99988 22.8033 9.02769C22.1166 10.0555 21.75 11.2639 21.75 12.5C21.75 14.1576 22.4085 15.7473 23.5806 16.9194C24.7527 18.0915 26.3424 18.75 28 18.75ZM13 21.25C11.7639 21.25 10.5555 21.6166 9.52769 22.3033C8.49988 22.9901 7.6988 23.9662 7.22576 25.1082C6.75271 26.2503 6.62894 27.5069 6.87009 28.7193C7.11125 29.9317 7.70651 31.0453 8.58059 31.9194C9.45466 32.7935 10.5683 33.3888 11.7807 33.6299C12.9931 33.8711 14.2497 33.7473 15.3918 33.2743C16.5338 32.8012 17.5099 32.0001 18.1967 30.9723C18.8834 29.9445 19.25 28.7361 19.25 27.5C19.25 25.8424 18.5915 24.2527 17.4194 23.0806C16.2473 21.9085 14.6576 21.25 13 21.25ZM28 21.25C26.7639 21.25 25.5555 21.6166 24.5277 22.3033C23.4999 22.9901 22.6988 23.9662 22.2258 25.1082C21.7527 26.2503 21.6289 27.5069 21.8701 28.7193C22.1113 29.9317 22.7065 31.0453 23.5806 31.9194C24.4547 32.7935 25.5683 33.3888 26.7807 33.6299C27.9931 33.8711 29.2497 33.7473 30.3918 33.2743C31.5338 32.8012 32.5099 32.0001 33.1967 30.9723C33.8834 29.9445 34.25 28.7361 34.25 27.5C34.25 25.8424 33.5915 24.2527 32.4194 23.0806C31.2473 21.9085 29.6576 21.25 28 21.25Z" fill="#9A9A9A"/>
</svg>
