<svg width="48" height="48" viewBox="0 0 48 48" fill="none" xmlns="http://www.w3.org/2000/svg">
<g filter="url(#filter0_d_2240_126561)">
<path d="M38.3755 26.4198L24.0005 34.8026L9.62549 26.4198C9.34087 26.2781 9.01295 26.2501 8.70847 26.3417C8.40399 26.4332 8.14583 26.6374 7.98654 26.9125C7.82726 27.1877 7.77881 27.5132 7.85107 27.8228C7.92333 28.1325 8.11086 28.4029 8.37549 28.5792L23.3755 37.3292C23.5666 37.4406 23.7839 37.4993 24.0052 37.4993C24.2264 37.4993 24.4437 37.4406 24.6349 37.3292L39.6349 28.5792C39.7789 28.4976 39.9054 28.3883 40.0069 28.2576C40.1084 28.1268 40.1828 27.9772 40.226 27.8174C40.2692 27.6576 40.2803 27.4908 40.2585 27.3267C40.2367 27.1626 40.1825 27.0045 40.0991 26.8615C40.0157 26.7185 39.9048 26.5935 39.7727 26.4937C39.6406 26.394 39.49 26.3214 39.3296 26.2803C39.1693 26.2392 39.0024 26.2304 38.8386 26.2543C38.6748 26.2783 38.5174 26.3345 38.3755 26.4198Z" fill="#9A9A9A"/>
<path d="M38.3755 18.9198L24.0005 27.3026L9.62549 18.9198C9.34087 18.7781 9.01295 18.7501 8.70847 18.8417C8.40399 18.9332 8.14583 19.1374 7.98654 19.4125C7.82726 19.6877 7.77881 20.0132 7.85107 20.3228C7.92333 20.6325 8.11086 20.9029 8.37549 21.0792L23.3755 29.8292C23.5666 29.9406 23.7839 29.9993 24.0052 29.9993C24.2264 29.9993 24.4437 29.9406 24.6349 29.8292L39.6349 21.0792C39.7789 20.9976 39.9054 20.8883 40.0069 20.7576C40.1084 20.6268 40.1828 20.4772 40.226 20.3174C40.2692 20.1576 40.2803 19.9908 40.2585 19.8267C40.2367 19.6626 40.1825 19.5045 40.0991 19.3615C40.0157 19.2185 39.9048 19.0935 39.7727 18.9937C39.6406 18.894 39.49 18.8214 39.3296 18.7803C39.1693 18.7392 39.0024 18.7304 38.8386 18.7543C38.6748 18.7783 38.5174 18.8345 38.3755 18.9198Z" fill="#9A9A9A"/>
<path d="M8.37498 13.5796L23.375 22.3296C23.5661 22.441 23.7834 22.4998 24.0047 22.4998C24.2259 22.4998 24.4432 22.441 24.6344 22.3296L39.6344 13.5796C39.8231 13.4695 39.9796 13.3119 40.0884 13.1224C40.1972 12.933 40.2545 12.7183 40.2545 12.4999C40.2545 12.2814 40.1972 12.0668 40.0884 11.8773C39.9796 11.6879 39.8231 11.5303 39.6344 11.4202L24.6344 2.67019C24.4432 2.55873 24.2259 2.5 24.0047 2.5C23.7834 2.5 23.5661 2.55873 23.375 2.67019L8.37498 11.4202C8.18629 11.5303 8.02974 11.6879 7.92094 11.8773C7.81214 12.0668 7.75488 12.2814 7.75488 12.4999C7.75488 12.7183 7.81214 12.933 7.92094 13.1224C8.02974 13.3119 8.18629 13.4695 8.37498 13.5796Z" fill="#9A9A9A"/>
</g>
<defs>
<filter id="filter0_d_2240_126561" x="0" y="0" width="48" height="48" filterUnits="userSpaceOnUse" color-interpolation-filters="sRGB">
<feFlood flood-opacity="0" result="BackgroundImageFix"/>
<feColorMatrix in="SourceAlpha" type="matrix" values="0 0 0 0 0 0 0 0 0 0 0 0 0 0 0 0 0 0 127 0" result="hardAlpha"/>
<feOffset dy="4"/>
<feGaussianBlur stdDeviation="2"/>
<feComposite in2="hardAlpha" operator="out"/>
<feColorMatrix type="matrix" values="0 0 0 0 0 0 0 0 0 0 0 0 0 0 0 0 0 0 0.25 0"/>
<feBlend mode="normal" in2="BackgroundImageFix" result="effect1_dropShadow_2240_126561"/>
<feBlend mode="normal" in="SourceGraphic" in2="effect1_dropShadow_2240_126561" result="shape"/>
</filter>
</defs>
</svg>
