<svg width="32" height="32" viewBox="0 0 32 32" fill="none" xmlns="http://www.w3.org/2000/svg">
<path d="M29.7071 9.70757L25.4133 14.0001L28.7071 17.2926C28.8 17.3855 28.8737 17.4958 28.924 17.6172C28.9743 17.7386 29.0001 17.8687 29.0001 18.0001C29.0001 18.1315 28.9743 18.2616 28.924 18.383C28.8737 18.5044 28.8 18.6147 28.7071 18.7076C28.6142 18.8005 28.5039 18.8742 28.3825 18.9245C28.2611 18.9747 28.131 19.0006 27.9996 19.0006C27.8682 19.0006 27.7381 18.9747 27.6167 18.9245C27.4953 18.8742 27.385 18.8005 27.2921 18.7076L26.4996 17.9138L19.8746 24.5388C19.4103 25.0031 18.8591 25.3715 18.2524 25.6227C17.6458 25.874 16.9956 26.0034 16.339 26.0034C15.6823 26.0034 15.0321 25.874 14.4255 25.6227C13.8188 25.3715 13.2676 25.0031 12.8033 24.5388L10.8433 22.5713L4.70708 28.7076C4.61417 28.8005 4.50387 28.8742 4.38248 28.9245C4.26108 28.9747 4.13097 29.0006 3.99958 29.0006C3.86818 29.0006 3.73808 28.9747 3.61668 28.9245C3.49529 28.8742 3.38499 28.8005 3.29208 28.7076C3.19917 28.6147 3.12547 28.5044 3.07519 28.383C3.0249 28.2616 2.99902 28.1315 2.99902 28.0001C2.99902 27.8687 3.0249 27.7386 3.07519 27.6172C3.12547 27.4958 3.19917 27.3855 3.29208 27.2926L9.42833 21.1563L7.46458 19.1926C7.00026 18.7283 6.63194 18.1771 6.38065 17.5704C6.12936 16.9638 6.00002 16.3136 6.00002 15.6569C6.00002 15.0003 6.12936 14.3501 6.38065 13.7435C6.63194 13.1368 7.00026 12.5856 7.46458 12.1213L14.0896 5.49632L13.2958 4.70382C13.1082 4.51618 13.0028 4.26168 13.0028 3.99632C13.0028 3.73095 13.1082 3.47646 13.2958 3.28882C13.4835 3.10118 13.738 2.99576 14.0033 2.99576C14.2687 2.99576 14.5232 3.10118 14.7108 3.28882L17.9996 6.58632L22.2921 2.29257C22.4797 2.10493 22.7342 1.99951 22.9996 1.99951C23.2649 1.99951 23.5194 2.10493 23.7071 2.29257C23.8947 2.48021 24.0001 2.7347 24.0001 3.00007C24.0001 3.26543 23.8947 3.51993 23.7071 3.70757L19.4133 8.00007L23.9996 12.5863L28.2921 8.29257C28.4797 8.10493 28.7342 7.99951 28.9996 7.99951C29.2649 7.99951 29.5194 8.10493 29.7071 8.29257C29.8947 8.48021 30.0001 8.7347 30.0001 9.00007C30.0001 9.26543 29.8947 9.51993 29.7071 9.70757Z" fill="#9A9A9A"/>
</svg>
