<svg width="40" height="40" viewBox="0 0 40 40" fill="none" xmlns="http://www.w3.org/2000/svg">
<path d="M33.7071 13.7076L29.4133 18.0001L32.7071 21.2926C32.8 21.3855 32.8737 21.4958 32.924 21.6172C32.9743 21.7386 33.0001 21.8687 33.0001 22.0001C33.0001 22.1315 32.9743 22.2616 32.924 22.383C32.8737 22.5044 32.8 22.6147 32.7071 22.7076C32.6142 22.8005 32.5039 22.8742 32.3825 22.9245C32.2611 22.9747 32.131 23.0006 31.9996 23.0006C31.8682 23.0006 31.7381 22.9747 31.6167 22.9245C31.4953 22.8742 31.385 22.8005 31.2921 22.7076L30.4996 21.9138L23.8746 28.5388C23.4103 29.0031 22.8591 29.3715 22.2524 29.6227C21.6458 29.874 20.9956 30.0034 20.339 30.0034C19.6823 30.0034 19.0321 29.874 18.4255 29.6227C17.8188 29.3715 17.2676 29.0031 16.8033 28.5388L14.8433 26.5713L8.70708 32.7076C8.61417 32.8005 8.50387 32.8742 8.38248 32.9245C8.26108 32.9747 8.13097 33.0006 7.99958 33.0006C7.86818 33.0006 7.73808 32.9747 7.61668 32.9245C7.49529 32.8742 7.38499 32.8005 7.29208 32.7076C7.19917 32.6147 7.12547 32.5044 7.07519 32.383C7.0249 32.2616 6.99902 32.1315 6.99902 32.0001C6.99902 31.8687 7.0249 31.7386 7.07519 31.6172C7.12547 31.4958 7.19917 31.3855 7.29208 31.2926L13.4283 25.1563L11.4646 23.1926C11.0003 22.7283 10.6319 22.1771 10.3806 21.5704C10.1294 20.9638 10 20.3136 10 19.6569C10 19.0003 10.1294 18.3501 10.3806 17.7435C10.6319 17.1368 11.0003 16.5856 11.4646 16.1213L18.0896 9.49632L17.2958 8.70382C17.1082 8.51618 17.0028 8.26168 17.0028 7.99632C17.0028 7.73095 17.1082 7.47646 17.2958 7.28882C17.4835 7.10118 17.738 6.99576 18.0033 6.99576C18.2687 6.99576 18.5232 7.10118 18.7108 7.28882L21.9996 10.5863L26.2921 6.29257C26.4797 6.10493 26.7342 5.99951 26.9996 5.99951C27.2649 5.99951 27.5194 6.10493 27.7071 6.29257C27.8947 6.48021 28.0001 6.7347 28.0001 7.00007C28.0001 7.26543 27.8947 7.51993 27.7071 7.70757L23.4133 12.0001L27.9996 16.5863L32.2921 12.2926C32.4797 12.1049 32.7342 11.9995 32.9996 11.9995C33.2649 11.9995 33.5194 12.1049 33.7071 12.2926C33.8947 12.4802 34.0001 12.7347 34.0001 13.0001C34.0001 13.2654 33.8947 13.5199 33.7071 13.7076Z" fill="#9A9A9A"/>
</svg>
