<svg width="217" height="48" viewBox="0 0 217 48" fill="none" xmlns="http://www.w3.org/2000/svg">
<path d="M28 14C28 6.26801 34.268 0 42 0H62C69.732 0 76 6.26801 76 14V34C76 41.732 69.732 48 62 48H42C34.268 48 28 41.732 28 34V14Z" fill="#008847"/>
<path d="M46.8164 33L53.8341 14H55.8946L48.8769 33H46.8164Z" fill="#202020"/>
<path d="M0 13C0 5.8203 5.8203 0 13 0C20.1797 0 26 5.8203 26 13V35C26 42.1797 20.1797 48 13 48C5.8203 48 0 42.1797 0 35V13Z" fill="#008847"/>
<path d="M11.75 29.9991V27.4991H14.25V29.9991H11.75Z" fill="#202020"/>
<path d="M78 24C78 10.7452 88.7452 0 102 0H143C156.255 0 167 10.7452 167 24C167 37.2548 156.255 48 143 48H102C88.7452 48 78 37.2548 78 24Z" fill="#008847"/>
<path d="M99.606 31.5V16.1H103.83C108.032 16.1 110.628 19.334 110.628 23.8C110.628 28.266 108.032 31.5 103.83 31.5H99.606ZM103.72 29.806C106.756 29.806 108.516 27.408 108.516 23.8C108.516 20.192 106.756 17.794 103.72 17.794H101.608V29.806H103.72Z" fill="#202020"/>
<path d="M116.813 31.786C113.447 31.786 111.467 29.278 111.467 25.956C111.467 22.656 113.447 20.126 116.813 20.126C120.179 20.126 122.159 22.656 122.159 25.956C122.159 29.278 120.179 31.786 116.813 31.786ZM116.813 30.158C119.233 30.158 120.157 28.09 120.157 25.934C120.157 23.8 119.233 21.754 116.813 21.754C114.393 21.754 113.469 23.8 113.469 25.934C113.469 28.09 114.393 30.158 116.813 30.158Z" fill="#202020"/>
<path d="M129.091 31.786C125.857 31.786 123.745 29.278 123.745 25.956C123.745 22.656 125.857 20.126 129.113 20.126C131.643 20.126 133.513 21.666 133.865 24.218H131.885C131.577 22.656 130.499 21.754 129.091 21.754C126.781 21.754 125.769 23.734 125.769 25.934C125.769 28.156 126.781 30.158 129.091 30.158C130.521 30.158 131.489 29.41 131.885 27.98H133.843C133.425 30.246 131.731 31.786 129.091 31.786Z" fill="#202020"/>
<path d="M140.798 31.786C137.894 31.786 136.09 30.378 135.892 28.024H137.872C138.136 29.498 139.126 30.202 140.842 30.202C142.338 30.202 143.262 29.52 143.262 28.464C143.262 27.65 142.668 27.078 141.524 26.88L139.346 26.44C137.762 26.132 136.2 25.384 136.2 23.36C136.2 21.512 137.938 20.126 140.534 20.126C143.042 20.126 144.868 21.182 145.088 23.602H143.108C142.91 22.37 141.986 21.71 140.512 21.71C139.104 21.71 138.158 22.37 138.158 23.294C138.158 24.174 138.928 24.592 139.808 24.768L142.118 25.208C143.68 25.516 145.264 26.374 145.264 28.354C145.264 30.422 143.438 31.786 140.798 31.786Z" fill="#202020"/>
<path d="M169 14C169 6.26801 175.268 0 183 0H203C210.732 0 217 6.26801 217 14V34C217 41.732 210.732 48 203 48H183C175.268 48 169 41.732 169 34V14Z" fill="#008847"/>
<path fill-rule="evenodd" clip-rule="evenodd" d="M193 11H185C183.895 11 183 11.8954 183 13V34C183 35.1046 183.895 36 185 36H201C202.105 36 203 35.1046 203 34V21H195C193.895 21 193 20.1046 193 19V11ZM203 19L195 11V19H203Z" fill="#202020"/>
</svg>
