<svg width="41" height="40" viewBox="0 0 41 40" fill="none" xmlns="http://www.w3.org/2000/svg">
<path d="M31.8703 8.42032C28.8448 5.42436 24.7578 3.74564 20.5 3.75001H20.3328C16.0521 3.79405 11.9617 5.52553 8.95025 8.56823C5.93885 11.6109 4.24977 15.7191 4.25 20C4.25 26.7188 8.40312 32.3531 15.0875 34.7141C15.8414 34.9799 16.6481 35.061 17.4398 34.9507C18.2316 34.8404 18.9854 34.5419 19.638 34.0802C20.2905 33.6185 20.8229 33.007 21.1904 32.297C21.5579 31.5871 21.7498 30.7994 21.75 30C21.75 29.337 22.0134 28.7011 22.4822 28.2322C22.9511 27.7634 23.587 27.5 24.25 27.5H31.4703C32.6045 27.5055 33.7064 27.1229 34.5932 26.4158C35.48 25.7086 36.0982 24.7195 36.3453 23.6125C36.6247 22.3824 36.7605 21.124 36.75 19.8625C36.7341 17.7273 36.2946 15.6165 35.4569 13.6523C34.6193 11.6882 33.4002 9.90987 31.8703 8.42032ZM13.625 26.25C13.2542 26.25 12.8916 26.14 12.5833 25.934C12.275 25.728 12.0346 25.4352 11.8927 25.0925C11.7508 24.7499 11.7137 24.3729 11.786 24.0092C11.8584 23.6455 12.037 23.3114 12.2992 23.0492C12.5614 22.787 12.8955 22.6084 13.2592 22.536C13.6229 22.4637 13.9999 22.5008 14.3425 22.6427C14.6851 22.7847 14.978 23.025 15.184 23.3333C15.39 23.6417 15.5 24.0042 15.5 24.375C15.5 24.8723 15.3025 25.3492 14.9508 25.7008C14.5992 26.0525 14.1223 26.25 13.625 26.25ZM13.625 17.5C13.2542 17.5 12.8916 17.39 12.5833 17.184C12.275 16.978 12.0346 16.6852 11.8927 16.3425C11.7508 15.9999 11.7137 15.6229 11.786 15.2592C11.8584 14.8955 12.037 14.5614 12.2992 14.2992C12.5614 14.037 12.8955 13.8584 13.2592 13.786C13.6229 13.7137 13.9999 13.7508 14.3425 13.8927C14.6851 14.0346 14.978 14.275 15.184 14.5833C15.39 14.8917 15.5 15.2542 15.5 15.625C15.5 16.1223 15.3025 16.5992 14.9508 16.9508C14.5992 17.3025 14.1223 17.5 13.625 17.5ZM20.5 13.75C20.1292 13.75 19.7666 13.64 19.4583 13.434C19.15 13.228 18.9096 12.9352 18.7677 12.5925C18.6258 12.2499 18.5887 11.8729 18.661 11.5092C18.7334 11.1455 18.912 10.8114 19.1742 10.5492C19.4364 10.287 19.7705 10.1084 20.1342 10.036C20.4979 9.96369 20.8749 10.0008 21.2175 10.1427C21.5601 10.2846 21.853 10.525 22.059 10.8333C22.265 11.1417 22.375 11.5042 22.375 11.875C22.375 12.3723 22.1775 12.8492 21.8258 13.2008C21.4742 13.5525 20.9973 13.75 20.5 13.75ZM27.375 17.5C27.0042 17.5 26.6416 17.39 26.3333 17.184C26.025 16.978 25.7846 16.6852 25.6427 16.3425C25.5008 15.9999 25.4637 15.6229 25.536 15.2592C25.6084 14.8955 25.787 14.5614 26.0492 14.2992C26.3114 14.037 26.6455 13.8584 27.0092 13.786C27.3729 13.7137 27.7499 13.7508 28.0925 13.8927C28.4351 14.0346 28.728 14.275 28.934 14.5833C29.14 14.8917 29.25 15.2542 29.25 15.625C29.25 16.1223 29.0525 16.5992 28.7008 16.9508C28.3492 17.3025 27.8723 17.5 27.375 17.5Z" fill="#9A9A9A"/>
</svg>
