<svg width="40" height="40" viewBox="0 0 40 40" fill="none" xmlns="http://www.w3.org/2000/svg">
<path d="M19.9996 3.75C17.1941 3.74939 14.4362 4.47514 11.9944 5.85661C9.55259 7.23808 7.51003 9.22821 6.06553 11.6333C4.62104 14.0384 3.82383 16.7764 3.7515 19.581C3.67916 22.3856 4.33417 25.1612 5.65277 27.6375L3.87933 32.9578C3.73243 33.3983 3.71111 33.871 3.81776 34.3229C3.92441 34.7749 4.15482 35.1881 4.48316 35.5165C4.8115 35.8448 5.22479 36.0752 5.67671 36.1819C6.12864 36.2885 6.60134 36.2672 7.04183 36.1203L12.3621 34.3469C14.5415 35.506 16.9562 36.1534 19.4231 36.24C21.89 36.3266 24.3442 35.85 26.5994 34.8465C28.8546 33.8429 30.8516 32.3388 32.4387 30.4483C34.0258 28.5577 35.1614 26.3304 35.7592 23.9355C36.357 21.5406 36.4014 19.0409 35.8889 16.6263C35.3764 14.2117 34.3206 11.9455 32.8016 9.99987C31.2825 8.05421 29.3402 6.48019 27.122 5.39727C24.9038 4.31436 22.4681 3.75101 19.9996 3.75ZM13.1246 21.875C12.7538 21.875 12.3913 21.765 12.0829 21.559C11.7746 21.353 11.5343 21.0601 11.3924 20.7175C11.2505 20.3749 11.2133 19.9979 11.2857 19.6342C11.358 19.2705 11.5366 18.9364 11.7988 18.6742C12.061 18.412 12.3951 18.2334 12.7588 18.161C13.1226 18.0887 13.4996 18.1258 13.8422 18.2677C14.1848 18.4096 14.4776 18.65 14.6836 18.9583C14.8897 19.2666 14.9996 19.6292 14.9996 20C14.9996 20.4973 14.8021 20.9742 14.4505 21.3258C14.0988 21.6775 13.6219 21.875 13.1246 21.875ZM19.9996 21.875C19.6288 21.875 19.2663 21.765 18.9579 21.559C18.6496 21.353 18.4093 21.0601 18.2674 20.7175C18.1255 20.3749 18.0883 19.9979 18.1607 19.6342C18.233 19.2705 18.4116 18.9364 18.6738 18.6742C18.936 18.412 19.2701 18.2334 19.6338 18.161C19.9976 18.0887 20.3746 18.1258 20.7172 18.2677C21.0598 18.4096 21.3526 18.65 21.5586 18.9583C21.7647 19.2666 21.8746 19.6292 21.8746 20C21.8746 20.4973 21.6771 20.9742 21.3255 21.3258C20.9738 21.6775 20.4969 21.875 19.9996 21.875ZM26.8746 21.875C26.5038 21.875 26.1413 21.765 25.833 21.559C25.5246 21.353 25.2843 21.0601 25.1424 20.7175C25.0005 20.3749 24.9633 19.9979 25.0357 19.6342C25.108 19.2705 25.2866 18.9364 25.5488 18.6742C25.811 18.412 26.1451 18.2334 26.5089 18.161C26.8726 18.0887 27.2496 18.1258 27.5922 18.2677C27.9348 18.4096 28.2276 18.65 28.4336 18.9583C28.6397 19.2666 28.7496 19.6292 28.7496 20C28.7496 20.4973 28.5521 20.9742 28.2005 21.3258C27.8488 21.6775 27.3719 21.875 26.8746 21.875Z" fill="#9A9A9A"/>
</svg>
