<svg width="218" height="48" viewBox="0 0 218 48" fill="none" xmlns="http://www.w3.org/2000/svg">
<path d="M28.25 14C28.25 6.26801 34.518 0 42.25 0H62.25C69.982 0 76.25 6.26801 76.25 14V34C76.25 41.732 69.982 48 62.25 48H42.25C34.518 48 28.25 41.732 28.25 34V14Z" fill="#008847"/>
<path d="M47.0664 33L54.0841 14H56.1446L49.1269 33H47.0664Z" fill="#202020"/>
<path d="M0.25 13C0.25 5.8203 6.0703 0 13.25 0C20.4297 0 26.25 5.8203 26.25 13V35C26.25 42.1797 20.4297 48 13.25 48C6.0703 48 0.25 42.1797 0.25 35V13Z" fill="#008847"/>
<path d="M12 29.999V27.499H14.5V29.999H12Z" fill="#202020"/>
<rect x="78.25" width="89" height="48" rx="24" fill="#008847"/>
<path d="M100.253 29.8701V14.4701H104.477C108.679 14.4701 111.275 17.7041 111.275 22.1701C111.275 26.6361 108.679 29.8701 104.477 29.8701H100.253ZM102.255 28.1761H104.367C107.403 28.1761 109.163 25.7781 109.163 22.1701C109.163 18.5621 107.403 16.1641 104.367 16.1641H102.255V28.1761ZM117.459 30.1561C114.093 30.1561 112.113 27.6481 112.113 24.3261C112.113 21.0261 114.093 18.4961 117.459 18.4961C120.825 18.4961 122.805 21.0261 122.805 24.3261C122.805 27.6481 120.825 30.1561 117.459 30.1561ZM114.115 24.3041C114.115 26.4601 115.039 28.5281 117.459 28.5281C119.879 28.5281 120.803 26.4601 120.803 24.3041C120.803 22.1701 119.879 20.1241 117.459 20.1241C115.039 20.1241 114.115 22.1701 114.115 24.3041ZM129.738 30.1561C126.504 30.1561 124.392 27.6481 124.392 24.3261C124.392 21.0261 126.504 18.4961 129.76 18.4961C132.29 18.4961 134.16 20.0361 134.512 22.5881H132.532C132.224 21.0261 131.146 20.1241 129.738 20.1241C127.428 20.1241 126.416 22.1041 126.416 24.3041C126.416 26.5261 127.428 28.5281 129.738 28.5281C131.168 28.5281 132.136 27.7801 132.532 26.3501H134.49C134.072 28.6161 132.378 30.1561 129.738 30.1561ZM141.444 30.1561C138.54 30.1561 136.736 28.7481 136.538 26.3941H138.518C138.782 27.8681 139.772 28.5721 141.488 28.5721C142.984 28.5721 143.908 27.8901 143.908 26.8341C143.908 26.0201 143.314 25.4481 142.17 25.2501L139.992 24.8101C138.408 24.5021 136.846 23.7541 136.846 21.7301C136.846 19.8821 138.584 18.4961 141.18 18.4961C143.688 18.4961 145.514 19.5521 145.734 21.9721H143.754C143.556 20.7401 142.632 20.0801 141.158 20.0801C139.75 20.0801 138.804 20.7401 138.804 21.6641C138.804 22.5441 139.574 22.9621 140.454 23.1381L142.764 23.5781C144.326 23.8861 145.91 24.7441 145.91 26.7241C145.91 28.7921 144.084 30.1561 141.444 30.1561Z" fill="#202020"/>
<rect x="169.25" width="48" height="48" rx="14" fill="#008847"/>
<path fill-rule="evenodd" clip-rule="evenodd" d="M193.25 11H185.25C184.145 11 183.25 11.8954 183.25 13V34C183.25 35.1046 184.145 36 185.25 36H201.25C202.355 36 203.25 35.1046 203.25 34V21H195.25C194.145 21 193.25 20.1046 193.25 19V11ZM203.25 19L195.25 11V19H203.25Z" fill="#202020"/>
</svg>